<svg id="jmw-logo" xmlns="http://www.w3.org/2000/svg" version="1.1" viewBox="0 0 266.88 210.81">
    <path d="M244.05,99.23c-1.32-4.42-3.76-3-4.89-2.22-18.82,73.35-118.51,24.26-136,18.38-.09-40.76-1.08-100.26-1.08-100.26S53.83,3,35.79,36.49c-9.34,17.35-4.52,39.74,5.32,47.61,11.12,8.9,27.7,5.8,26.25.89-27.85-11.72-16-53.25,12.5-49.69l.41,76.84c-19.72.06-41.53,2.84-57.4,24.72C6.34,163.07,18.4,189.46,38,198.46c28.92,13.29,64.08.23,65-51.25,0-2.32-.09-6.11-.07-9C213.15,186.49,249.91,129.67,244.05,99.23ZM49.57,174c-15.85-8.91-12-40.94,30.29-40.49C81.2,175.77,63.11,181.6,49.57,174Z"/>
    <path d="M249.6,9.15c-13.79,11.69-41.59-7.27-42.69,5,0,0,0,.87,0,2.39l-.11.06c4.3,30.85.23,73.7-9.8,74.15-15.08.68-16.9-59.31-13.33-69.4.73-2.09-4.48-3.15-10.07-3.29v.07c-5.52.16-10.65,1.21-9.91,3.28,3.56,10.09,1.75,70.09-13.33,69.4-10-.45-14.11-43.3-9.81-74.14-5.34-3.12-21-4.27-23.63-.27,0,0-5.53,68.12,12.39,90.64A22.66,22.66,0,0,0,144,115.53c13.33,1.48,22.68-6.78,29.69-23.26,7,16.44,16.36,24.68,29.66,23.2A22.7,22.7,0,0,0,218.08,107c13-16.37,13.94-55.42,13.47-75.54C246.93,29.32,253.18,11.2,249.6,9.15Z"/>
</svg>
